<?xml version="1.0" encoding="UTF-8" standalone="no"?><!DOCTYPE svg PUBLIC "-//W3C//DTD SVG 1.1//EN" "http://www.w3.org/Graphics/SVG/1.1/DTD/svg11.dtd"><!-- Generated by graphviz version 2.40.1 (20161225.0304)
 --><!-- Title: DG Pages: 1 --><svg xmlns="http://www.w3.org/2000/svg" xmlns:xlink="http://www.w3.org/1999/xlink" width="342pt" height="222pt" viewBox="0.00 0.00 342.11 221.60">
<g id="graph0" class="graph" transform="scale(1 1) rotate(0) translate(4 217.6)">
<title>DG</title>
<polygon fill="#ffffff" stroke="transparent" points="-4,4 -4,-217.6 338.1065,-217.6 338.1065,4 -4,4"/>
<!-- 1 -->
<g id="node1" class="node">
<title>1</title>
<ellipse fill="none" stroke="#000000" cx="76.639" cy="-18" rx="76.7783" ry="18"/>
<text text-anchor="middle" x="76.639" y="-13.8" font-family="Times,serif" font-size="14.00" fill="#000000">1:  loadI 8 =&gt; r1 </text>
</g>
<!-- 2 -->
<g id="node2" class="node">
<title>2</title>
<ellipse fill="none" stroke="#000000" cx="252.639" cy="-18" rx="81.435" ry="18"/>
<text text-anchor="middle" x="252.639" y="-13.8" font-family="Times,serif" font-size="14.00" fill="#000000">2:  loadI 12 =&gt; r3 </text>
</g>
<!-- 3 -->
<g id="node3" class="node">
<title>3</title>
<ellipse fill="none" stroke="#000000" cx="241.639" cy="-106.8" rx="88.3547" ry="18"/>
<text text-anchor="middle" x="241.639" y="-102.6" font-family="Times,serif" font-size="14.00" fill="#000000">3:  mult r1,r3 =&gt; r2 </text>
</g>
<!-- 3&#45;&gt;1 -->
<g id="edge1" class="edge">
<title>3-&gt;1</title>
<path fill="none" stroke="#000000" d="M210.2154,-89.8884C183.5541,-75.5397 145.1596,-54.8765 116.3699,-39.3824"/>
<polygon fill="#000000" stroke="#000000" points="117.8516,-36.2052 107.3871,-34.5481 114.5342,-42.3692 117.8516,-36.2052"/>
<text text-anchor="middle" x="203.1825" y="-58.2" font-family="Times,serif" font-size="14.00" fill="#000000"> Data, vr1 </text>
</g>
<!-- 3&#45;&gt;2 -->
<g id="edge2" class="edge">
<title>3-&gt;2</title>
<path fill="none" stroke="#000000" d="M243.9182,-88.4006C245.4327,-76.175 247.4501,-59.8887 249.1631,-46.0599"/>
<polygon fill="#000000" stroke="#000000" points="252.6444,-46.4265 250.4004,-36.072 245.6975,-45.5659 252.6444,-46.4265"/>
<text text-anchor="middle" x="277.1825" y="-58.2" font-family="Times,serif" font-size="14.00" fill="#000000"> Data, vr3 </text>
</g>
<!-- 4 -->
<g id="node4" class="node">
<title>4</title>
<ellipse fill="none" stroke="#000000" cx="92.639" cy="-195.6" rx="84.3258" ry="18"/>
<text text-anchor="middle" x="92.639" y="-191.4" font-family="Times,serif" font-size="14.00" fill="#000000">4:  add r1,r2 =&gt; r0 </text>
</g>
<!-- 4&#45;&gt;1 -->
<g id="edge3" class="edge">
<title>4-&gt;1</title>
<path fill="none" stroke="#000000" d="M90.751,-177.5659C89.2735,-163.2626 87.2002,-142.76 85.552,-124.8 83.1083,-98.1714 80.5993,-67.7812 78.8685,-46.2454"/>
<polygon fill="#000000" stroke="#000000" points="82.3472,-45.8386 78.0619,-36.1491 75.3694,-46.3961 82.3472,-45.8386"/>
<text text-anchor="middle" x="114.1825" y="-102.6" font-family="Times,serif" font-size="14.00" fill="#000000"> Data, vr1 </text>
</g>
<!-- 4&#45;&gt;3 -->
<g id="edge4" class="edge">
<title>4-&gt;3</title>
<path fill="none" stroke="#000000" d="M121.3677,-178.4785C144.9695,-164.4124 178.5777,-144.3828 204.2703,-129.0708"/>
<polygon fill="#000000" stroke="#000000" points="206.2002,-131.9951 212.9985,-123.869 202.6165,-125.982 206.2002,-131.9951"/>
<text text-anchor="middle" x="209.1825" y="-147" font-family="Times,serif" font-size="14.00" fill="#000000"> Data, vr2 </text>
</g>
</g>
</svg>