<?xml version="1.0" encoding="UTF-8" standalone="no"?><!DOCTYPE svg PUBLIC "-//W3C//DTD SVG 1.1//EN" "http://www.w3.org/Graphics/SVG/1.1/DTD/svg11.dtd"><!-- Generated by graphviz version 2.40.1 (20161225.0304)
 --><!-- Title: DG Pages: 1 --><svg xmlns="http://www.w3.org/2000/svg" xmlns:xlink="http://www.w3.org/1999/xlink" width="353pt" height="555pt" viewBox="0.00 0.00 353.20 555.39">
<g id="graph0" class="graph" transform="scale(1 1) rotate(0) translate(4 551.3877)">
<title>DG</title>
<polygon fill="#ffffff" stroke="transparent" points="-4,4 -4,-551.3877 349.2041,-551.3877 349.2041,4 -4,4"/>
<!-- 1 -->
<g id="node1" class="node">
<title>1</title>
<ellipse fill="none" stroke="#000000" cx="264.1652" cy="-29.4156" rx="78.6279" ry="29.3315"/>
<text text-anchor="middle" x="264.1652" y="-33.6156" font-family="Times,serif" font-size="14.00" fill="#000000">1:  loadI  8 =&gt; r3</text>
<text text-anchor="middle" x="264.1652" y="-16.8156" font-family="Times,serif" font-size="14.00" fill="#000000">prio:  124</text>
</g>
<!-- 2 -->
<g id="node2" class="node">
<title>2</title>
<ellipse fill="none" stroke="#000000" cx="84.1652" cy="-29.4156" rx="83.5274" ry="29.3315"/>
<text text-anchor="middle" x="84.1652" y="-33.6156" font-family="Times,serif" font-size="14.00" fill="#000000">2:  loadI  12 =&gt; r4</text>
<text text-anchor="middle" x="84.1652" y="-16.8156" font-family="Times,serif" font-size="14.00" fill="#000000">prio:  124</text>
</g>
<!-- 3 -->
<g id="node3" class="node">
<title>3</title>
<ellipse fill="none" stroke="#000000" cx="103.1652" cy="-141.0469" rx="96.3651" ry="29.3315"/>
<text text-anchor="middle" x="103.1652" y="-145.2469" font-family="Times,serif" font-size="14.00" fill="#000000">3:  add    r3, r4  =&gt; r0</text>
<text text-anchor="middle" x="103.1652" y="-128.4469" font-family="Times,serif" font-size="14.00" fill="#000000">prio:  113</text>
</g>
<!-- 3&#45;&gt;1 -->
<g id="edge1" class="edge">
<title>3-&gt;1</title>
<path fill="none" stroke="#000000" d="M141.777,-113.7407C158.0406,-102.2866 177.1934,-88.8595 194.5782,-76.8313 201.8366,-71.8094 209.5417,-66.519 217.0793,-61.3659"/>
<polygon fill="#000000" stroke="#000000" points="219.5275,-63.9325 225.8139,-55.4042 215.5813,-58.1509 219.5275,-63.9325"/>
<text text-anchor="middle" x="222.9587" y="-81.0313" font-family="Times,serif" font-size="14.00" fill="#000000"> Data, vr3</text>
</g>
<!-- 3&#45;&gt;2 -->
<g id="edge2" class="edge">
<title>3-&gt;2</title>
<path fill="none" stroke="#000000" d="M98.1235,-111.4249C95.8941,-98.3267 93.2412,-82.7398 90.8499,-68.69"/>
<polygon fill="#000000" stroke="#000000" points="94.293,-68.0597 89.1646,-58.7888 87.3922,-69.2343 94.293,-68.0597"/>
<text text-anchor="middle" x="122.9587" y="-81.0313" font-family="Times,serif" font-size="14.00" fill="#000000"> Data, vr4</text>
</g>
<!-- 4 -->
<g id="node4" class="node">
<title>4</title>
<ellipse fill="none" stroke="#000000" cx="155.1652" cy="-294.7095" rx="81.0777" ry="29.3315"/>
<text text-anchor="middle" x="155.1652" y="-298.9095" font-family="Times,serif" font-size="14.00" fill="#000000">4:  load   r0 =&gt; r1</text>
<text text-anchor="middle" x="155.1652" y="-282.1095" font-family="Times,serif" font-size="14.00" fill="#000000">prio:  102</text>
</g>
<!-- 4&#45;&gt;3 -->
<g id="edge3" class="edge">
<title>4-&gt;3</title>
<path fill="none" stroke="#000000" d="M129.7842,-266.6044C125.4385,-260.5779 121.4168,-253.9959 118.5782,-247.2939 109.6858,-226.2982 105.7725,-201.1071 104.1103,-180.5245"/>
<polygon fill="#000000" stroke="#000000" points="107.6015,-180.2757 103.4473,-170.5293 100.6169,-180.739 107.6015,-180.2757"/>
<text text-anchor="middle" x="146.9587" y="-213.6782" font-family="Times,serif" font-size="14.00" fill="#000000"> Data, vr0</text>
</g>
<!-- 5 -->
<g id="node5" class="node">
<title>5</title>
<ellipse fill="none" stroke="#000000" cx="264.1652" cy="-217.8782" rx="81.0777" ry="29.3315"/>
<text text-anchor="middle" x="264.1652" y="-222.0782" font-family="Times,serif" font-size="14.00" fill="#000000">5:  load   r3 =&gt; r2</text>
<text text-anchor="middle" x="264.1652" y="-205.2782" font-family="Times,serif" font-size="14.00" fill="#000000">prio:  102</text>
</g>
<!-- 5&#45;&gt;1 -->
<g id="edge4" class="edge">
<title>5-&gt;1</title>
<path fill="none" stroke="#000000" d="M264.1652,-188.4309C264.1652,-156.3004 264.1652,-104.693 264.1652,-69.0281"/>
<polygon fill="#000000" stroke="#000000" points="267.6653,-68.9665 264.1652,-58.9665 260.6653,-68.9665 267.6653,-68.9665"/>
<text text-anchor="middle" x="291.9587" y="-136.8469" font-family="Times,serif" font-size="14.00" fill="#000000"> Data, vr3</text>
</g>
<!-- 6 -->
<g id="node6" class="node">
<title>6</title>
<ellipse fill="none" stroke="#000000" cx="155.1652" cy="-406.3408" rx="80.52" ry="29.3315"/>
<text text-anchor="middle" x="155.1652" y="-410.5408" font-family="Times,serif" font-size="14.00" fill="#000000">6:  store  r1 =&gt; r0</text>
<text text-anchor="middle" x="155.1652" y="-393.7408" font-family="Times,serif" font-size="14.00" fill="#000000">prio:  51</text>
</g>
<!-- 6&#45;&gt;3 -->
<g id="edge6" class="edge">
<title>6-&gt;3</title>
<path fill="none" stroke="#000000" d="M92.3073,-387.6391C61.6103,-374.9797 27.5039,-354.8347 9.5782,-324.1251 -19.7766,-273.8358 26.2782,-213.3002 63.5585,-175.9954"/>
<polygon fill="#000000" stroke="#000000" points="66.1627,-178.3444 70.8727,-168.8541 61.2724,-173.3358 66.1627,-178.3444"/>
<text text-anchor="middle" x="37.9587" y="-290.5095" font-family="Times,serif" font-size="14.00" fill="#000000"> Data, vr0</text>
</g>
<!-- 6&#45;&gt;4 -->
<g id="edge5" class="edge">
<title>6-&gt;4</title>
<path fill="none" stroke="#000000" d="M155.1652,-376.7187C155.1652,-363.8507 155.1652,-348.5805 155.1652,-334.7257"/>
<polygon fill="#000000" stroke="#000000" points="158.6653,-334.4699 155.1652,-324.47 151.6653,-334.47 158.6653,-334.4699"/>
<text text-anchor="middle" x="182.9587" y="-346.3251" font-family="Times,serif" font-size="14.00" fill="#000000"> Data, vr1</text>
</g>
<!-- 6&#45;&gt;5 -->
<g id="edge7" class="edge">
<title>6-&gt;5</title>
<path fill="none" stroke="#000000" d="M195.6049,-380.4421C214.1344,-366.2291 234.3426,-346.8651 245.1652,-324.1251 255.0162,-303.4269 259.7911,-278.2489 262.0917,-257.599"/>
<polygon fill="#000000" stroke="#000000" points="265.5833,-257.8533 263.0584,-247.5638 258.6155,-257.182 265.5833,-257.8533"/>
<text text-anchor="middle" x="254.992" y="-346.3251" font-family="Times,serif" font-size="14.00" fill="#000000"> Serial </text>
</g>
<!-- 7 -->
<g id="node7" class="node">
<title>7</title>
<ellipse fill="none" stroke="#000000" cx="155.1652" cy="-517.9721" rx="61.7799" ry="29.3315"/>
<text text-anchor="middle" x="155.1652" y="-522.1721" font-family="Times,serif" font-size="14.00" fill="#000000">7:  output 12</text>
<text text-anchor="middle" x="155.1652" y="-505.3721" font-family="Times,serif" font-size="14.00" fill="#000000">prio:  0</text>
</g>
<!-- 7&#45;&gt;6 -->
<g id="edge8" class="edge">
<title>7-&gt;6</title>
<path fill="none" stroke="#000000" d="M155.1652,-488.35C155.1652,-475.482 155.1652,-460.2118 155.1652,-446.357"/>
<polygon fill="#000000" stroke="#000000" points="158.6653,-446.1012 155.1652,-436.1013 151.6653,-446.1013 158.6653,-446.1012"/>
<text text-anchor="middle" x="181.607" y="-457.9564" font-family="Times,serif" font-size="14.00" fill="#000000"> Conflict </text>
</g>
</g>
</svg>