<?xml version="1.0" encoding="UTF-8" standalone="no"?><!DOCTYPE svg PUBLIC "-//W3C//DTD SVG 1.1//EN" "http://www.w3.org/Graphics/SVG/1.1/DTD/svg11.dtd"><!-- Generated by graphviz version 2.40.1 (20161225.0304)
 --><!-- Title: DG Pages: 1 --><svg xmlns="http://www.w3.org/2000/svg" xmlns:xlink="http://www.w3.org/1999/xlink" width="410pt" height="513pt" viewBox="0.00 0.00 410.27 513.36">
<g id="graph0" class="graph" transform="scale(1 1) rotate(0) translate(4 509.3564)">
<title>DG</title>
<polygon fill="#ffffff" stroke="transparent" points="-4,4 -4,-509.3564 406.2734,-509.3564 406.2734,4 -4,4"/>
<!-- 9 -->
<g id="node1" class="node">
<title>9</title>
<ellipse fill="none" stroke="#000000" cx="323.7094" cy="-29.4156" rx="78.6279" ry="29.3315"/>
<text text-anchor="middle" x="323.7094" y="-33.6156" font-family="Times,serif" font-size="14.00" fill="#000000">9:  loadI  8 =&gt; r2</text>
<text text-anchor="middle" x="323.7094" y="-16.8156" font-family="Times,serif" font-size="14.00" fill="#000000">prio:  104</text>
</g>
<!-- 10 -->
<g id="node2" class="node">
<title>10</title>
<ellipse fill="none" stroke="#000000" cx="122.7094" cy="-29.4156" rx="88.4269" ry="29.3315"/>
<text text-anchor="middle" x="122.7094" y="-33.6156" font-family="Times,serif" font-size="14.00" fill="#000000">10:  loadI  12 =&gt; r0</text>
<text text-anchor="middle" x="122.7094" y="-16.8156" font-family="Times,serif" font-size="14.00" fill="#000000">prio:  104</text>
</g>
<!-- 11 -->
<g id="node3" class="node">
<title>11</title>
<ellipse fill="none" stroke="#000000" cx="200.7094" cy="-141.0469" rx="102.533" ry="29.3315"/>
<text text-anchor="middle" x="200.7094" y="-145.2469" font-family="Times,serif" font-size="14.00" fill="#000000">11:  mult   r2, r0  =&gt; r3</text>
<text text-anchor="middle" x="200.7094" y="-128.4469" font-family="Times,serif" font-size="14.00" fill="#000000">prio:  93</text>
</g>
<!-- 11&#45;&gt;9 -->
<g id="edge1" class="edge">
<title>11-&gt;9</title>
<path fill="none" stroke="#000000" d="M230.9848,-112.768C243.0998,-101.5229 257.2184,-88.5065 270.1224,-76.8313 274.898,-72.5104 279.9371,-67.995 284.9371,-63.5411"/>
<polygon fill="#000000" stroke="#000000" points="287.5662,-65.8871 292.7185,-56.6294 282.9176,-60.6535 287.5662,-65.8871"/>
<text text-anchor="middle" x="297.5029" y="-81.0313" font-family="Times,serif" font-size="14.00" fill="#000000"> Data, vr2</text>
</g>
<!-- 11&#45;&gt;10 -->
<g id="edge2" class="edge">
<title>11-&gt;10</title>
<path fill="none" stroke="#000000" d="M170.0564,-112.7716C164.3857,-106.7591 158.7883,-100.2258 154.1224,-93.6313 148.4829,-85.6607 143.3429,-76.5244 138.928,-67.6917"/>
<polygon fill="#000000" stroke="#000000" points="142.0771,-66.164 134.5991,-58.6586 135.7645,-69.1891 142.0771,-66.164"/>
<text text-anchor="middle" x="182.5029" y="-81.0313" font-family="Times,serif" font-size="14.00" fill="#000000"> Data, vr0</text>
</g>
<!-- 12 -->
<g id="node4" class="node">
<title>12</title>
<ellipse fill="none" stroke="#000000" cx="200.7094" cy="-252.6782" rx="101.2647" ry="29.3315"/>
<text text-anchor="middle" x="200.7094" y="-256.8782" font-family="Times,serif" font-size="14.00" fill="#000000">12:  add    r2, r3  =&gt; r1</text>
<text text-anchor="middle" x="200.7094" y="-240.0782" font-family="Times,serif" font-size="14.00" fill="#000000">prio:  62</text>
</g>
<!-- 12&#45;&gt;9 -->
<g id="edge3" class="edge">
<title>12-&gt;9</title>
<path fill="none" stroke="#000000" d="M251.3841,-227.1746C273.6497,-213.3919 298.0227,-194.2785 312.7094,-170.4626 331.3922,-140.1667 332.4482,-98.9736 329.8468,-68.9282"/>
<polygon fill="#000000" stroke="#000000" points="333.3096,-68.3877 328.797,-58.8019 326.3469,-69.1095 333.3096,-68.3877"/>
<text text-anchor="middle" x="357.5029" y="-136.8469" font-family="Times,serif" font-size="14.00" fill="#000000"> Data, vr2</text>
</g>
<!-- 12&#45;&gt;11 -->
<g id="edge4" class="edge">
<title>12-&gt;11</title>
<path fill="none" stroke="#000000" d="M200.7094,-223.0562C200.7094,-210.1881 200.7094,-194.9179 200.7094,-181.0631"/>
<polygon fill="#000000" stroke="#000000" points="204.2095,-180.8074 200.7094,-170.8074 197.2095,-180.8074 204.2095,-180.8074"/>
<text text-anchor="middle" x="228.5029" y="-192.6626" font-family="Times,serif" font-size="14.00" fill="#000000"> Data, vr3</text>
</g>
<!-- 13 -->
<g id="node5" class="node">
<title>13</title>
<ellipse fill="none" stroke="#000000" cx="85.7094" cy="-364.3095" rx="85.9193" ry="29.3315"/>
<text text-anchor="middle" x="85.7094" y="-368.5095" font-family="Times,serif" font-size="14.00" fill="#000000">13:  store  r1 =&gt; r0</text>
<text text-anchor="middle" x="85.7094" y="-351.7095" font-family="Times,serif" font-size="14.00" fill="#000000">prio:  51</text>
</g>
<!-- 13&#45;&gt;10 -->
<g id="edge6" class="edge">
<title>13-&gt;10</title>
<path fill="none" stroke="#000000" d="M82.4804,-334.7447C78.08,-287.1698 72.4701,-190.9272 88.7094,-111.6313 91.7267,-96.8978 97.3672,-81.4786 103.199,-68.0266"/>
<polygon fill="#000000" stroke="#000000" points="106.5221,-69.1716 107.4445,-58.617 100.1415,-66.2927 106.5221,-69.1716"/>
<text text-anchor="middle" x="107.5029" y="-192.6626" font-family="Times,serif" font-size="14.00" fill="#000000"> Data, vr0</text>
</g>
<!-- 13&#45;&gt;12 -->
<g id="edge5" class="edge">
<title>13-&gt;12</title>
<path fill="none" stroke="#000000" d="M114.4321,-336.4282C129.5474,-321.7556 148.2374,-303.6132 164.353,-287.9697"/>
<polygon fill="#000000" stroke="#000000" points="166.8166,-290.456 171.5542,-280.9794 161.9409,-285.4332 166.8166,-290.456"/>
<text text-anchor="middle" x="178.5029" y="-304.2939" font-family="Times,serif" font-size="14.00" fill="#000000"> Data, vr1</text>
</g>
<!-- 14 -->
<g id="node6" class="node">
<title>14</title>
<ellipse fill="none" stroke="#000000" cx="85.7094" cy="-475.9408" rx="66.6792" ry="29.3315"/>
<text text-anchor="middle" x="85.7094" y="-480.1408" font-family="Times,serif" font-size="14.00" fill="#000000">14:  output 12</text>
<text text-anchor="middle" x="85.7094" y="-463.3408" font-family="Times,serif" font-size="14.00" fill="#000000">prio:  0</text>
</g>
<!-- 14&#45;&gt;13 -->
<g id="edge7" class="edge">
<title>14-&gt;13</title>
<path fill="none" stroke="#000000" d="M85.7094,-446.3187C85.7094,-433.4507 85.7094,-418.1805 85.7094,-404.3257"/>
<polygon fill="#000000" stroke="#000000" points="89.2095,-404.0699 85.7094,-394.07 82.2095,-404.07 89.2095,-404.0699"/>
<text text-anchor="middle" x="112.1512" y="-415.9251" font-family="Times,serif" font-size="14.00" fill="#000000"> Conflict </text>
</g>
</g>
</svg>