<?xml version="1.0" encoding="UTF-8" standalone="no"?><!DOCTYPE svg PUBLIC "-//W3C//DTD SVG 1.1//EN" "http://www.w3.org/Graphics/SVG/1.1/DTD/svg11.dtd"><!-- Generated by graphviz version 2.40.1 (20161225.0304)
 --><!-- Title: DG Pages: 1 --><svg xmlns="http://www.w3.org/2000/svg" xmlns:xlink="http://www.w3.org/1999/xlink" width="730pt" height="737pt" viewBox="0.00 0.00 729.59 736.62">
<g id="graph0" class="graph" transform="scale(1 1) rotate(0) translate(4 732.619)">
<title>DG</title>
<polygon fill="#ffffff" stroke="transparent" points="-4,4 -4,-732.619 725.587,-732.619 725.587,4 -4,4"/>
<!-- 5 -->
<g id="node1" class="node">
<title>5</title>
<ellipse fill="none" stroke="#000000" cx="130" cy="-29.4156" rx="78.6279" ry="29.3315"/>
<text text-anchor="middle" x="130" y="-33.6156" font-family="Times,serif" font-size="14.00" fill="#000000">5:  loadI  8 =&gt; r0</text>
<text text-anchor="middle" x="130" y="-16.8156" font-family="Times,serif" font-size="14.00" fill="#000000">prio:  186</text>
</g>
<!-- 6 -->
<g id="node2" class="node">
<title>6</title>
<ellipse fill="none" stroke="#000000" cx="628" cy="-141.0469" rx="83.5274" ry="29.3315"/>
<text text-anchor="middle" x="628" y="-145.2469" font-family="Times,serif" font-size="14.00" fill="#000000">6:  loadI  12 =&gt; r4</text>
<text text-anchor="middle" x="628" y="-128.4469" font-family="Times,serif" font-size="14.00" fill="#000000">prio:  175</text>
</g>
<!-- 7 -->
<g id="node3" class="node">
<title>7</title>
<ellipse fill="none" stroke="#000000" cx="130" cy="-141.0469" rx="81.0777" ry="29.3315"/>
<text text-anchor="middle" x="130" y="-145.2469" font-family="Times,serif" font-size="14.00" fill="#000000">7:  load   r0 =&gt; r3</text>
<text text-anchor="middle" x="130" y="-128.4469" font-family="Times,serif" font-size="14.00" fill="#000000">prio:  175</text>
</g>
<!-- 7&#45;&gt;5 -->
<g id="edge1" class="edge">
<title>7-&gt;5</title>
<path fill="none" stroke="#000000" d="M130,-111.4249C130,-98.5568 130,-83.2867 130,-69.4319"/>
<polygon fill="#000000" stroke="#000000" points="133.5001,-69.1761 130,-59.1761 126.5001,-69.1762 133.5001,-69.1761"/>
<text text-anchor="middle" x="157.7935" y="-81.0313" font-family="Times,serif" font-size="14.00" fill="#000000"> Data, vr0</text>
</g>
<!-- 8 -->
<g id="node4" class="node">
<title>8</title>
<ellipse fill="none" stroke="#000000" cx="558" cy="-252.6782" rx="81.0777" ry="29.3315"/>
<text text-anchor="middle" x="558" y="-256.8782" font-family="Times,serif" font-size="14.00" fill="#000000">8:  load   r4 =&gt; r5</text>
<text text-anchor="middle" x="558" y="-240.0782" font-family="Times,serif" font-size="14.00" fill="#000000">prio:  164</text>
</g>
<!-- 8&#45;&gt;6 -->
<g id="edge2" class="edge">
<title>8-&gt;6</title>
<path fill="none" stroke="#000000" d="M576.0267,-223.9304C584.6146,-210.235 595.0013,-193.671 604.2249,-178.9619"/>
<polygon fill="#000000" stroke="#000000" points="607.4437,-180.4169 609.7911,-170.0853 601.5132,-176.698 607.4437,-180.4169"/>
<text text-anchor="middle" x="624.7935" y="-192.6626" font-family="Times,serif" font-size="14.00" fill="#000000"> Data, vr4</text>
</g>
<!-- 9 -->
<g id="node5" class="node">
<title>9</title>
<ellipse fill="none" stroke="#000000" cx="287" cy="-252.6782" rx="96.3651" ry="29.3315"/>
<text text-anchor="middle" x="287" y="-256.8782" font-family="Times,serif" font-size="14.00" fill="#000000">9:  add    r0, r3  =&gt; r2</text>
<text text-anchor="middle" x="287" y="-240.0782" font-family="Times,serif" font-size="14.00" fill="#000000">prio:  124</text>
</g>
<!-- 9&#45;&gt;5 -->
<g id="edge3" class="edge">
<title>9-&gt;5</title>
<path fill="none" stroke="#000000" d="M274.6737,-223.4261C269.9166,-212.4026 264.3408,-199.7941 259,-188.4626 234.1329,-135.7026 232.1139,-117.1848 190,-76.8313 184.7935,-71.8424 179.0955,-66.8361 173.3489,-62.0444"/>
<polygon fill="#000000" stroke="#000000" points="175.4864,-59.2713 165.5242,-55.6651 171.0632,-64.6967 175.4864,-59.2713"/>
<text text-anchor="middle" x="277.7935" y="-136.8469" font-family="Times,serif" font-size="14.00" fill="#000000"> Data, vr0</text>
</g>
<!-- 9&#45;&gt;7 -->
<g id="edge4" class="edge">
<title>9-&gt;7</title>
<path fill="none" stroke="#000000" d="M238.2322,-227.2153C226.5407,-220.5165 214.2965,-212.9887 203.413,-205.2626 190.848,-196.3427 177.9396,-185.6502 166.5196,-175.5723"/>
<polygon fill="#000000" stroke="#000000" points="168.6575,-172.7885 158.8738,-168.7228 163.9867,-178.0023 168.6575,-172.7885"/>
<text text-anchor="middle" x="230.7935" y="-192.6626" font-family="Times,serif" font-size="14.00" fill="#000000"> Data, vr3</text>
</g>
<!-- 10 -->
<g id="node6" class="node">
<title>10</title>
<ellipse fill="none" stroke="#000000" cx="451" cy="-364.3095" rx="85.9193" ry="29.3315"/>
<text text-anchor="middle" x="451" y="-368.5095" font-family="Times,serif" font-size="14.00" fill="#000000">10:  store  r2 =&gt; r4</text>
<text text-anchor="middle" x="451" y="-351.7095" font-family="Times,serif" font-size="14.00" fill="#000000">prio:  113</text>
</g>
<!-- 10&#45;&gt;6 -->
<g id="edge6" class="edge">
<title>10-&gt;6</title>
<path fill="none" stroke="#000000" d="M528.5754,-351.4798C570.5766,-340.3649 619.5537,-319.8239 648,-282.0939 673.1676,-248.7126 668.3304,-228.7036 657,-188.4626 656.0977,-185.2581 654.912,-182.0562 653.5355,-178.9143"/>
<polygon fill="#000000" stroke="#000000" points="656.539,-177.0957 648.9268,-169.7265 650.282,-180.2343 656.539,-177.0957"/>
<text text-anchor="middle" x="693.7935" y="-248.4782" font-family="Times,serif" font-size="14.00" fill="#000000"> Data, vr4</text>
</g>
<!-- 10&#45;&gt;7 -->
<g id="edge7" class="edge">
<title>10-&gt;7</title>
<path fill="none" stroke="#000000" d="M441.9962,-334.9262C430.2427,-298.3303 409.1491,-238.728 392,-223.2626 331.6689,-168.8546 294.3798,-195.2099 217,-170.4626 211.12,-168.5821 205.0285,-166.5975 198.924,-164.5834"/>
<polygon fill="#000000" stroke="#000000" points="199.9425,-161.2337 189.3491,-161.4047 197.737,-167.8772 199.9425,-161.2337"/>
<text text-anchor="middle" x="441.8268" y="-248.4782" font-family="Times,serif" font-size="14.00" fill="#000000"> Serial </text>
</g>
<!-- 10&#45;&gt;8 -->
<g id="edge8" class="edge">
<title>10-&gt;8</title>
<path fill="none" stroke="#000000" d="M463.2799,-335.1942C469.1418,-323.4488 476.9452,-310.2932 486.3464,-300.0939 491.82,-294.1555 498.1832,-288.6082 504.8149,-283.5521"/>
<polygon fill="#000000" stroke="#000000" points="507.2527,-286.1091 513.312,-277.418 503.1554,-280.4335 507.2527,-286.1091"/>
<text text-anchor="middle" x="505.8268" y="-304.2939" font-family="Times,serif" font-size="14.00" fill="#000000"> Serial </text>
</g>
<!-- 10&#45;&gt;9 -->
<g id="edge5" class="edge">
<title>10-&gt;9</title>
<path fill="none" stroke="#000000" d="M394.1497,-342.1849C378.9942,-335.1284 363.0538,-326.5944 349.413,-316.8939 338.2063,-308.9243 327.2927,-298.7957 317.8076,-288.9515"/>
<polygon fill="#000000" stroke="#000000" points="320.2404,-286.4288 310.8516,-281.5194 315.1297,-291.2122 320.2404,-286.4288"/>
<text text-anchor="middle" x="376.7935" y="-304.2939" font-family="Times,serif" font-size="14.00" fill="#000000"> Data, vr2</text>
</g>
<!-- 11 -->
<g id="node7" class="node">
<title>11</title>
<ellipse fill="none" stroke="#000000" cx="466" cy="-475.9408" rx="61.7799" ry="29.3315"/>
<text text-anchor="middle" x="466" y="-480.1408" font-family="Times,serif" font-size="14.00" fill="#000000">11:  output 8</text>
<text text-anchor="middle" x="466" y="-463.3408" font-family="Times,serif" font-size="14.00" fill="#000000">prio:  62</text>
</g>
<!-- 11&#45;&gt;10 -->
<g id="edge9" class="edge">
<title>11-&gt;10</title>
<path fill="none" stroke="#000000" d="M462.0197,-446.3187C460.2906,-433.4507 458.2387,-418.1805 456.377,-404.3257"/>
<polygon fill="#000000" stroke="#000000" points="459.7996,-403.5148 454.9989,-394.07 452.8619,-404.447 459.7996,-403.5148"/>
<text text-anchor="middle" x="485.4418" y="-415.9251" font-family="Times,serif" font-size="14.00" fill="#000000"> Conflict </text>
</g>
<!-- 12 -->
<g id="node8" class="node">
<title>12</title>
<ellipse fill="none" stroke="#000000" cx="246" cy="-364.3095" rx="100.6759" ry="29.3315"/>
<text text-anchor="middle" x="246" y="-368.5095" font-family="Times,serif" font-size="14.00" fill="#000000">12:  sub    r2, r3  =&gt; r1</text>
<text text-anchor="middle" x="246" y="-351.7095" font-family="Times,serif" font-size="14.00" fill="#000000">prio:  62</text>
</g>
<!-- 12&#45;&gt;7 -->
<g id="edge11" class="edge">
<title>12-&gt;7</title>
<path fill="none" stroke="#000000" d="M188.7782,-339.9476C164.9616,-326.5974 139.7846,-307.5135 126.413,-282.0939 109.9894,-250.8721 113.1801,-210.1394 119.114,-180.4784"/>
<polygon fill="#000000" stroke="#000000" points="122.5827,-180.9993 121.2996,-170.4824 115.7443,-179.504 122.5827,-180.9993"/>
<text text-anchor="middle" x="154.7935" y="-248.4782" font-family="Times,serif" font-size="14.00" fill="#000000"> Data, vr3</text>
</g>
<!-- 12&#45;&gt;9 -->
<g id="edge10" class="edge">
<title>12-&gt;9</title>
<path fill="none" stroke="#000000" d="M247.5722,-334.8472C248.8715,-323.6828 251.2126,-311.0336 255.413,-300.0939 256.6744,-296.8086 258.1953,-293.5207 259.8792,-290.2943"/>
<polygon fill="#000000" stroke="#000000" points="263.0318,-291.8327 264.9762,-281.4178 256.9613,-288.3469 263.0318,-291.8327"/>
<text text-anchor="middle" x="282.7935" y="-304.2939" font-family="Times,serif" font-size="14.00" fill="#000000"> Data, vr2</text>
</g>
<!-- 13 -->
<g id="node9" class="node">
<title>13</title>
<ellipse fill="none" stroke="#000000" cx="347" cy="-587.5721" rx="85.9193" ry="29.3315"/>
<text text-anchor="middle" x="347" y="-591.7721" font-family="Times,serif" font-size="14.00" fill="#000000">13:  store  r1 =&gt; r0</text>
<text text-anchor="middle" x="347" y="-574.9721" font-family="Times,serif" font-size="14.00" fill="#000000">prio:  51</text>
</g>
<!-- 13&#45;&gt;5 -->
<g id="edge13" class="edge">
<title>13-&gt;5</title>
<path fill="none" stroke="#000000" d="M265.6439,-577.8725C163.0812,-563.3287 0,-531.4722 0,-475.9408 0,-475.9408 0,-475.9408 0,-141.0469 0,-102.1326 33.9429,-73.8402 67.1405,-55.4751"/>
<polygon fill="#000000" stroke="#000000" points="68.7954,-58.5593 75.9977,-50.789 65.5217,-52.3719 68.7954,-58.5593"/>
<text text-anchor="middle" x="27.7935" y="-304.2939" font-family="Times,serif" font-size="14.00" fill="#000000"> Data, vr0</text>
</g>
<!-- 13&#45;&gt;7 -->
<g id="edge15" class="edge">
<title>13-&gt;7</title>
<path fill="none" stroke="#000000" d="M272.674,-572.7076C190.9269,-554.1739 71,-519.5522 71,-475.9408 71,-475.9408 71,-475.9408 71,-252.6782 71,-225.32 85.0228,-198.1052 99.3956,-177.3963"/>
<polygon fill="#000000" stroke="#000000" points="102.2846,-179.3743 105.3205,-169.2238 96.6173,-175.2656 102.2846,-179.3743"/>
<text text-anchor="middle" x="90.8268" y="-360.1095" font-family="Times,serif" font-size="14.00" fill="#000000"> Serial </text>
</g>
<!-- 13&#45;&gt;8 -->
<g id="edge16" class="edge">
<title>13-&gt;8</title>
<path fill="none" stroke="#000000" d="M411.1506,-567.7312C460.0131,-551.2403 521.4571,-527.0498 537,-505.3564 582.3063,-442.122 575.0691,-345.7826 566.2411,-292.1762"/>
<polygon fill="#000000" stroke="#000000" points="569.6401,-291.2946 564.4694,-282.0472 562.7448,-292.5007 569.6401,-291.2946"/>
<text text-anchor="middle" x="589.8268" y="-415.9251" font-family="Times,serif" font-size="14.00" fill="#000000"> Serial </text>
</g>
<!-- 13&#45;&gt;10 -->
<g id="edge14" class="edge">
<title>13-&gt;10</title>
<path fill="none" stroke="#000000" d="M342.3214,-558.0597C339.0262,-528.288 337.8694,-481.8043 355.3464,-446.5251 365.2037,-426.6272 382.2606,-409.5928 399.2667,-396.2754"/>
<polygon fill="#000000" stroke="#000000" points="401.6799,-398.8405 407.5793,-390.0401 397.4795,-393.2408 401.6799,-398.8405"/>
<text text-anchor="middle" x="374.8268" y="-471.7408" font-family="Times,serif" font-size="14.00" fill="#000000"> Serial </text>
</g>
<!-- 13&#45;&gt;11 -->
<g id="edge17" class="edge">
<title>13-&gt;11</title>
<path fill="none" stroke="#000000" d="M376.7218,-559.6907C392.9598,-544.4582 413.1846,-525.4857 430.2765,-509.4522"/>
<polygon fill="#000000" stroke="#000000" points="432.9847,-511.7106 437.8835,-502.3163 428.1956,-506.6053 432.9847,-511.7106"/>
<text text-anchor="middle" x="432.8268" y="-527.5564" font-family="Times,serif" font-size="14.00" fill="#000000"> Serial </text>
</g>
<!-- 13&#45;&gt;12 -->
<g id="edge12" class="edge">
<title>13-&gt;12</title>
<path fill="none" stroke="#000000" d="M313.4351,-560.4787C297.5803,-545.8381 279.8783,-526.4545 269.413,-505.3564 253.6949,-473.6687 248.221,-433.5551 246.4568,-404.2144"/>
<polygon fill="#000000" stroke="#000000" points="249.9385,-403.7481 245.9626,-393.9276 242.9466,-404.0841 249.9385,-403.7481"/>
<text text-anchor="middle" x="296.7935" y="-471.7408" font-family="Times,serif" font-size="14.00" fill="#000000"> Data, vr1</text>
</g>
<!-- 14 -->
<g id="node10" class="node">
<title>14</title>
<ellipse fill="none" stroke="#000000" cx="473" cy="-699.2033" rx="61.7799" ry="29.3315"/>
<text text-anchor="middle" x="473" y="-703.4033" font-family="Times,serif" font-size="14.00" fill="#000000">14:  output 8</text>
<text text-anchor="middle" x="473" y="-686.6033" font-family="Times,serif" font-size="14.00" fill="#000000">prio:  0</text>
</g>
<!-- 14&#45;&gt;11 -->
<g id="edge18" class="edge">
<title>14-&gt;11</title>
<path fill="none" stroke="#000000" d="M473.7203,-669.6116C473.8369,-663.7076 473.9392,-657.551 474,-651.7877 474.4941,-604.9222 471.5252,-551.0996 469.065,-515.4747"/>
<polygon fill="#000000" stroke="#000000" points="472.555,-515.2078 468.3552,-505.4809 465.5726,-515.7038 472.555,-515.2078"/>
<text text-anchor="middle" x="492.8268" y="-583.3721" font-family="Times,serif" font-size="14.00" fill="#000000"> Serial </text>
</g>
<!-- 14&#45;&gt;13 -->
<g id="edge19" class="edge">
<title>14-&gt;13</title>
<path fill="none" stroke="#000000" d="M443.4586,-673.0308C426.2743,-657.8061 404.4112,-638.4362 385.8459,-621.9881"/>
<polygon fill="#000000" stroke="#000000" points="387.9205,-619.15 378.1145,-615.1383 383.2785,-624.3895 387.9205,-619.15"/>
<text text-anchor="middle" x="443.4418" y="-639.1877" font-family="Times,serif" font-size="14.00" fill="#000000"> Conflict </text>
</g>
</g>
</svg>