<?xml version="1.0" encoding="UTF-8" standalone="no"?><!DOCTYPE svg PUBLIC "-//W3C//DTD SVG 1.1//EN" "http://www.w3.org/Graphics/SVG/1.1/DTD/svg11.dtd"><!-- Generated by graphviz version 2.40.1 (20161225.0304)
 --><!-- Title: DG Pages: 1 --><svg xmlns="http://www.w3.org/2000/svg" xmlns:xlink="http://www.w3.org/1999/xlink" width="357pt" height="290pt" viewBox="0.00 0.00 357.25 290.09">
<g id="graph0" class="graph" transform="scale(1 1) rotate(0) translate(4 286.0939)">
<title>DG</title>
<polygon fill="#ffffff" stroke="transparent" points="-4,4 -4,-286.0939 353.249,-286.0939 353.249,4 -4,4"/>
<!-- 1 -->
<g id="node1" class="node">
<title>1</title>
<ellipse fill="none" stroke="#000000" cx="80.4325" cy="-29.4156" rx="78.6279" ry="29.3315"/>
<text text-anchor="middle" x="80.4325" y="-33.6156" font-family="Times,serif" font-size="14.00" fill="#000000">1:  loadI  8 =&gt; r1</text>
<text text-anchor="middle" x="80.4325" y="-16.8156" font-family="Times,serif" font-size="14.00" fill="#000000">prio:  42</text>
</g>
<!-- 2 -->
<g id="node2" class="node">
<title>2</title>
<ellipse fill="none" stroke="#000000" cx="260.4325" cy="-29.4156" rx="83.5274" ry="29.3315"/>
<text text-anchor="middle" x="260.4325" y="-33.6156" font-family="Times,serif" font-size="14.00" fill="#000000">2:  loadI  12 =&gt; r3</text>
<text text-anchor="middle" x="260.4325" y="-16.8156" font-family="Times,serif" font-size="14.00" fill="#000000">prio:  42</text>
</g>
<!-- 3 -->
<g id="node3" class="node">
<title>3</title>
<ellipse fill="none" stroke="#000000" cx="251.4325" cy="-141.0469" rx="97.6333" ry="29.3315"/>
<text text-anchor="middle" x="251.4325" y="-145.2469" font-family="Times,serif" font-size="14.00" fill="#000000">3:  mult   r1, r3  =&gt; r2</text>
<text text-anchor="middle" x="251.4325" y="-128.4469" font-family="Times,serif" font-size="14.00" fill="#000000">prio:  31</text>
</g>
<!-- 3&#45;&gt;1 -->
<g id="edge1" class="edge">
<title>3-&gt;1</title>
<path fill="none" stroke="#000000" d="M210.4738,-114.3085C185.7066,-98.1401 154.0212,-77.4554 128.1279,-60.5519"/>
<polygon fill="#000000" stroke="#000000" points="129.8741,-57.512 119.5872,-54.9763 126.0476,-63.3736 129.8741,-57.512"/>
<text text-anchor="middle" x="203.226" y="-81.0313" font-family="Times,serif" font-size="14.00" fill="#000000"> Data, vr1</text>
</g>
<!-- 3&#45;&gt;2 -->
<g id="edge2" class="edge">
<title>3-&gt;2</title>
<path fill="none" stroke="#000000" d="M253.8207,-111.4249C254.8582,-98.5568 256.0893,-83.2867 257.2063,-69.4319"/>
<polygon fill="#000000" stroke="#000000" points="260.7181,-69.4251 258.0332,-59.1761 253.7408,-68.8625 260.7181,-69.4251"/>
<text text-anchor="middle" x="284.226" y="-81.0313" font-family="Times,serif" font-size="14.00" fill="#000000"> Data, vr3</text>
</g>
<!-- 4 -->
<g id="node4" class="node">
<title>4</title>
<ellipse fill="none" stroke="#000000" cx="96.4325" cy="-252.6782" rx="96.3651" ry="29.3315"/>
<text text-anchor="middle" x="96.4325" y="-256.8782" font-family="Times,serif" font-size="14.00" fill="#000000">4:  add    r1, r2  =&gt; r0</text>
<text text-anchor="middle" x="96.4325" y="-240.0782" font-family="Times,serif" font-size="14.00" fill="#000000">prio:  0</text>
</g>
<!-- 4&#45;&gt;1 -->
<g id="edge3" class="edge">
<title>4-&gt;1</title>
<path fill="none" stroke="#000000" d="M93.461,-223.0151C91.955,-207.3896 90.1698,-187.9001 88.8455,-170.4626 86.2512,-136.3016 83.9837,-97.4355 82.4585,-69.1647"/>
<polygon fill="#000000" stroke="#000000" points="85.9377,-68.6801 81.9112,-58.8803 78.9476,-69.0522 85.9377,-68.6801"/>
<text text-anchor="middle" x="117.226" y="-136.8469" font-family="Times,serif" font-size="14.00" fill="#000000"> Data, vr1</text>
</g>
<!-- 4&#45;&gt;3 -->
<g id="edge4" class="edge">
<title>4-&gt;3</title>
<path fill="none" stroke="#000000" d="M134.3498,-225.3701C155.8218,-209.906 182.835,-190.451 205.5023,-174.126"/>
<polygon fill="#000000" stroke="#000000" points="207.5693,-176.9506 213.6384,-168.2663 203.4784,-171.2704 207.5693,-176.9506"/>
<text text-anchor="middle" x="210.226" y="-192.6626" font-family="Times,serif" font-size="14.00" fill="#000000"> Data, vr2</text>
</g>
</g>
</svg>